<?xml version="1.0" encoding="UTF-8"?>
<svg enable-background="new 0 0 56.69 22.68" version="1.1" viewBox="0 0 56.69 22.68" xml:space="preserve" xmlns="http://www.w3.org/2000/svg" xmlns:cc="http://creativecommons.org/ns#" xmlns:dc="http://purl.org/dc/elements/1.1/" xmlns:rdf="http://www.w3.org/1999/02/22-rdf-syntax-ns#"><metadata><rdf:RDF><cc:Work rdf:about=""><dc:format>image/svg+xml</dc:format><dc:type rdf:resource="http://purl.org/dc/dcmitype/StillImage"/><dc:title/></cc:Work></rdf:RDF></metadata>
	<style type="text/css">
	.st0{fill:#356388;}
	.st1{fill:#39B54A;}
	.st2{fill:#3C9CD7;}
</style>
	<g transform="matrix(1.3764 0 0 1.3764 -10.466 -8.5875)">
	<rect class="st0" x="32.09" y="6.47" width="1.97" height="1.77" fill="#356388"/>
		<rect class="st1" x="40.93" y="6.47" width="1.93" height="1.88" fill="#39b54a"/>
		<rect class="st1" x="35.05" y="14.09" width="1.93" height="1.88" fill="#39b54a"/>
		<rect class="st1" x="32.09" y="8.8" width="1.97" height="1.88" fill="#39b54a"/>
		<path class="st0" d="m32.09 11.24v2.22c0 0.52-0.28 0.84-0.75 0.84-0.44 0-0.76-0.28-0.76-0.85v-6.98h-0.28c-1.18 0-1.81 0.76-1.81 2.24v4.8c0 1.8 1.03 2.61 2.73 2.61 1.6 0 2.85-0.92 2.84-2.65v-2.22h-1.97z" fill="#356388"/>
		<path class="st2" d="m25.25 6.47h-1.25c-1.18 0-1.81 0.76-1.81 2.24v7.27h2.08v-3.38h0.92c1.72 0 2.45-1.2 2.45-3.19 0-1.94-0.83-2.94-2.39-2.94zm-0.38 4.44h-0.6v-2.73h0.61c0.49 0 0.73 0.37 0.73 1.29 0 0.98-0.26 1.44-0.74 1.44z" fill="#3c9cd7"/>
		<path class="st2" d="m12.43 6.47h-1.25c-1.18 0-1.81 0.76-1.81 2.24v7.27h2.08v-3.38h0.92c1.72 0 2.45-1.2 2.45-3.19 0-1.94-0.83-2.94-2.39-2.94zm-0.39 4.44h-0.6v-2.73h0.61c0.49 0 0.73 0.37 0.73 1.29 0.01 0.98-0.26 1.44-0.74 1.44z" fill="#3c9cd7"/>
		<path class="st2" d="m20.89 6.47c-1.18 0-1.81 0.76-1.81 2.24v1.55h-1.48v-3.79h-0.27c-1.18 0-1.81 0.76-1.81 2.24v7.27h2.08v-3.84h1.48v3.84h2.07v-9.5h-0.26z" fill="#3c9cd7"/>
		<path class="st0" d="m47.18 10.36v-1.49h-0.97v-1.61h-0.61c-0.85 0-1.31 0.55-1.31 1.61h-0.63v1.49h0.63v4.2c0 1.05 0.75 1.52 1.69 1.52 0.37 0 0.84-0.07 1.19-0.19v-1.53c-0.15 0.03-0.36 0.04-0.56 0.04-0.31 0-0.4-0.15-0.4-0.41v-3.63z" fill="#356388"/>
		<path class="st0" d="m38.46 8.64c-0.63 0-1.13 0.27-1.48 0.77v-0.61h-0.63c-0.85 0-1.31 0.55-1.31 1.61v3.12h1.93v-2.53c0-0.43 0.21-0.75 0.53-0.75 0.43 0 0.52 0.33 0.52 0.63v5.09h1.92v-5.81c0.02-0.94-0.65-1.52-1.48-1.52z" fill="#356388"/>
		<path class="st0" d="m42.24 8.87c-0.85 0-1.31 0.55-1.31 1.61v5.49h1.93v-7.1z" fill="#356388"/>
</g>
<g transform="matrix(.01176 0 0 -.0091734 16.555 21.884)"><path d="m1408 698.37v-188.7q0-39.312-24.202-66.83-24.202-27.518-58.775-27.518h-359.57v-408.84q0-39.312-24.202-66.83-24.202-27.518-58.775-27.518h-165.95q-34.574 0-58.775 27.518-24.202 27.518-24.202 66.83v408.84h-359.57q-34.574 0-58.775 27.518-24.202 27.518-24.202 66.83v188.7q0 39.312 24.202 66.83 24.202 27.518 58.775 27.518h359.57v408.84q0 39.312 24.202 66.83 24.202 27.518 58.775 27.518h165.95q34.574 0 58.775-27.518t24.202-66.83v-408.84h359.57q34.574 0 58.775-27.518 24.202-27.518 24.202-66.83z" fill="#39b54a" stroke-width=".92167"/></g></svg>
